<?xml version="1.0" standalone="no"?>
<!DOCTYPE svg PUBLIC "-//W3C//DTD SVG 20010904//EN"
 "http://www.w3.org/TR/2001/REC-SVG-20010904/DTD/svg10.dtd">
<svg version="1.0" xmlns="http://www.w3.org/2000/svg"
 width="191.000000pt" height="191.000000pt" viewBox="0 0 191.000000 191.000000"
 preserveAspectRatio="xMidYMid meet">
<metadata>
Created by potrace 1.11, written by Peter Selinger 2001-2013
</metadata>
<g transform="translate(0.000000,191.000000) scale(0.100000,-0.100000)"
fill="#000000" stroke="none">
<path d="M916 1864 c-3 -9 -6 -31 -6 -50 0 -19 -4 -34 -10 -34 -5 0 -10 4 -10
9 0 16 -107 62 -157 67 -48 5 -124 -13 -130 -32 -1 -5 26 -22 60 -37 62 -28
135 -77 92 -62 -55 19 -126 31 -180 29 -73 -2 -97 -8 -145 -33 -36 -19 -38
-19 -56 -1 -33 32 -81 30 -122 -5 -87 -73 -99 -253 -22 -335 16 -17 27 -37 24
-44 -3 -8 4 -20 15 -28 12 -8 18 -18 14 -21 -3 -4 -2 -7 4 -7 6 0 11 -23 10
-54 0 -29 6 -69 12 -87 11 -33 15 -78 12 -125 0 -12 -14 -41 -31 -65 -33 -49
-37 -64 -15 -55 8 3 15 1 15 -4 0 -6 -7 -10 -15 -10 -27 0 -102 -64 -102 -87
0 -13 3 -23 7 -23 4 0 0 -15 -10 -34 -21 -43 -13 -116 18 -149 12 -12 21 -31
21 -42 -1 -22 19 -87 20 -67 2 23 19 12 24 -16 12 -60 155 -162 227 -162 21 0
32 -6 36 -17 3 -10 11 -31 19 -46 14 -26 13 -28 -11 -37 -14 -6 -29 -10 -33
-10 -16 0 -50 -41 -45 -55 4 -10 -3 -16 -23 -21 -39 -9 -73 -32 -73 -49 0 -8
9 -24 20 -35 19 -19 19 -19 -15 -18 -19 1 -38 -2 -42 -5 -3 -4 354 -7 795 -7
711 0 802 2 802 15 0 9 -11 21 -25 27 -27 12 -32 27 -15 44 25 25 -31 74 -90
79 -46 4 -70 16 -70 35 0 25 -34 46 -87 55 -48 8 -50 10 -28 31 21 22 20 64
-3 64 -10 0 -25 13 -35 29 -19 32 -17 85 7 161 11 37 17 44 35 42 27 -4 28 20
3 69 -18 34 -18 37 -1 58 9 11 22 21 28 21 6 0 12 7 12 15 5 57 4 84 -4 110
-16 52 -17 97 -1 91 8 -3 14 -2 14 3 0 11 -48 51 -73 61 -19 7 -16 9 16 9 42
1 46 10 16 37 -14 12 -18 25 -14 41 4 17 1 23 -10 23 -14 0 -14 2 0 23 9 14
17 55 19 103 3 43 12 98 20 121 18 50 21 90 12 162 -18 130 -75 215 -160 235
-26 6 -35 1 -82 -48 -48 -51 -86 -76 -118 -76 -7 0 -20 17 -29 38 -9 21 -31
51 -48 67 l-32 30 6 -35 c3 -19 8 -51 12 -70 l6 -35 -21 40 c-29 57 -91 122
-136 144 -50 25 -61 14 -33 -33 37 -64 16 -48 -33 24 -33 49 -48 65 -52 54z
m-156 -1554 c-8 -5 -18 -6 -24 -3 -5 4 -1 10 10 13 24 9 34 2 14 -10z"/>
</g>
</svg>
