<?xml version="1.0" encoding="utf-8"?>
<!-- Generator: Adobe Illustrator 16.0.0, SVG Export Plug-In . SVG Version: 6.00 Build 0)  -->
<!DOCTYPE svg PUBLIC "-//W3C//DTD SVG 1.1//EN" "http://www.w3.org/Graphics/SVG/1.1/DTD/svg11.dtd">
<svg version="1.1" id="Calque_1" xmlns="http://www.w3.org/2000/svg" xmlns:xlink="http://www.w3.org/1999/xlink" x="0px" y="0px"
	 width="32.225px" height="32.229px" viewBox="0 0 32.225 32.229" enable-background="new 0 0 32.225 32.229" xml:space="preserve">
<path id="Blue_2_" fill="#3D5A98" d="M30.448,32.226c0.981,0,1.777-0.797,1.777-1.779V1.779c0-0.98-0.797-1.778-1.777-1.778H1.779
	C0.796,0.001,0,0.799,0,1.779v28.668c0,0.982,0.796,1.779,1.778,1.779H30.448z"/>
<path id="f_1_" fill="#FFFFFF" d="M22.236,32.226v-12.48h4.188l0.628-4.861h-4.816v-3.105c0-1.408,0.391-2.367,2.41-2.367
	l2.576-0.002V5.06c-0.445-0.06-1.976-0.191-3.755-0.191c-3.713,0-6.255,2.27-6.255,6.432v3.586h-4.199v4.861h4.199v12.48
	L22.236,32.226L22.236,32.226z"/>
</svg>
