<?xml version="1.0" encoding="utf-8"?>
<!-- Generator: Adobe Illustrator 16.0.0, SVG Export Plug-In . SVG Version: 6.00 Build 0)  -->
<!DOCTYPE svg PUBLIC "-//W3C//DTD SVG 1.1//EN" "http://www.w3.org/Graphics/SVG/1.1/DTD/svg11.dtd">
<svg version="1.1" id="Calque_1" xmlns="http://www.w3.org/2000/svg" xmlns:xlink="http://www.w3.org/1999/xlink" x="0px" y="0px"
	 width="32.221px" height="31.146px" viewBox="0 0 32.221 31.146" enable-background="new 0 0 32.221 31.146" xml:space="preserve">
<polyline fill="#FFFFFF" points="8.584,0.177 21.729,0.177 29.568,1.645 32.146,9.348 32.146,21.239 30.084,28.03 25.126,29.666 
	20.876,30.948 19.568,31.083 8.709,31.083 2.292,27.78 0.334,22.739 0.115,21.833 0.115,19.161 0.115,17.692 0.115,9.083 
	2.662,2.583 "/>
<g>
	<g>
		<path fill-rule="evenodd" clip-rule="evenodd" fill="#027DAE" d="M32.273,27.333c0,0.107,0,0.215,0,0.322
			c-0.131,0.196-0.076,0.425-0.1,0.637c-0.153,1.365-1.025,2.351-2.364,2.649c-0.466,0.104-0.938,0.149-1.412,0.15
			c-2.881,0.007-5.762,0.008-8.644,0.011c-0.06,0-0.119-0.007-0.181-0.011c0.005-0.021,0.006-0.036,0.01-0.038
			c0.033-0.013,0.067-0.023,0.102-0.033c2.134-0.631,3.928-1.818,5.515-3.353c1.956-1.89,3.356-4.08,3.772-6.819
			c0.083-0.549,0.147-1.099,0.112-1.657c-0.102,0.24-0.188,0.482-0.259,0.729c-0.491,1.691-1.342,3.175-2.59,4.419
			c-2.316,2.31-5.174,3.267-8.386,3.304c-1.748,0.021-3.486-0.106-5.213-0.374c-2.177-0.338-4.279-0.927-6.259-1.911
			c-2.506-1.244-4.541-3-5.906-5.476c-0.14-0.255-0.278-0.51-0.417-0.765c0-0.286,0-0.573,0-0.859
			c0.136-0.163,0.028-0.368,0.104-0.607c0.84,2.693,2.327,4.852,4.667,6.387c0.044-0.112-0.032-0.175-0.081-0.246
			c-0.159-0.227-0.321-0.452-0.478-0.681c-1.362-1.984-2.135-4.163-2.1-6.588c0.032-2.229,0.697-4.283,1.876-6.159
			C5.584,7.912,7.52,5.797,9.737,3.945c1.84-1.538,3.887-2.7,6.239-3.277c1.896-0.465,3.796-0.388,5.703-0.105
			c0.443,0.065,0.887,0.127,1.33,0.191c-0.441-0.277-0.933-0.416-1.394-0.638c0.044,0,0.087,0,0.13,0c2.201,0,4.402,0.001,6.604,0
			c0.287,0,0.572,0.014,0.857,0.044c1.751,0.186,2.777,1.203,2.969,2.947c0.08,0.731,0.063,1.465,0.061,2.199
			c0,0.092-0.047,0.196,0.038,0.279c0,0.125,0,0.25,0,0.375c-0.092,0.039-0.058,0.123-0.06,0.187
			c-0.026,0.939-0.068,1.877-0.046,2.817c0.004,0.146,0.001,0.292,0.001,0.438c-0.101-0.128-0.158-0.265-0.22-0.399
			c-2.28-4.969-6.158-7.657-11.597-8.09c-1.548-0.124-3.068,0.104-4.562,0.522c-1.007,0.282-2.024,0.535-2.958,1.027
			c-0.109,0.058-0.234,0.101-0.331,0.235c0.105-0.009,0.177-0.011,0.247-0.021c1.363-0.209,2.733-0.332,4.11-0.398
			c1.466-0.071,2.874,0.166,4.197,0.805c3.428,1.655,5.825,4.271,7.189,7.819c1.247,3.242,1.54,6.597,1.104,10.027
			c-0.122,0.958-0.227,1.919-0.624,2.817c-0.699,1.579-1.682,2.968-2.839,4.238c-0.471,0.518-0.957,1.021-1.437,1.529
			c0.019,0.018,0.038,0.035,0.057,0.053c3.449-1.918,6.208-4.479,7.623-8.363c0.021,0.101,0.029,0.124,0.028,0.146
			c-0.021,1.11,0.027,2.219,0.057,3.327c0.002,0.08-0.047,0.182,0.059,0.24c0,0.143,0,0.286,0,0.43
			c-0.082,0.071-0.038,0.166-0.039,0.248c-0.004,0.479-0.004,0.958,0.001,1.437C32.237,27.132,32.187,27.242,32.273,27.333z
			 M13.325,23.249c1.415-0.007,2.456,0.37,3.49,1.239c0.206,0.173,0.408,0.351,0.619,0.515c0.605,0.471,1.295,0.676,2.059,0.612
			c0.684-0.057,1.273-0.499,1.445-1.071c0.127-0.424,0.187-0.861,0.138-1.3c-0.231-2.089-0.938-4.014-2.089-5.768
			c-0.584-0.892-1.373-1.56-2.426-1.844c-1.686-0.455-3.269-0.222-4.695,0.811c-1.349,0.977-2.348,2.268-3.187,3.69
			c-0.119,0.2-0.212,0.416-0.263,0.644c-0.273,1.229,0.003,1.769,0.87,2.322c0.653,0.418,1.373,0.412,2.103,0.339
			C12.055,23.371,12.717,23.241,13.325,23.249z M17.75,11.071c0.012,0.547,0.117,1.08,0.308,1.496
			c0.42,0.916,1.254,1.358,2.232,1.178c0.384-0.071,0.736-0.226,1.05-0.456c1.049-0.767,1.71-1.792,1.976-3.06
			c0.168-0.805,0.119-1.604-0.229-2.363c-0.265-0.577-0.686-0.991-1.337-1.083c-0.654-0.092-1.29-0.013-1.85,0.375
			C18.533,8.106,17.873,9.443,17.75,11.071z M16.971,8.783c-0.014-0.841-0.161-1.663-0.592-2.41
			c-0.975-1.688-2.889-1.703-3.878-0.022c-0.61,1.038-0.732,2.17-0.547,3.344c0.145,0.915,0.524,1.705,1.268,2.287
			c0.829,0.65,1.805,0.614,2.591-0.087c0.284-0.253,0.502-0.557,0.671-0.896C16.83,10.305,16.961,9.563,16.971,8.783z
			 M26.114,15.469c-0.004-0.065-0.006-0.2-0.019-0.333c-0.123-1.279-1.034-1.981-2.304-1.782c-0.658,0.103-1.222,0.406-1.71,0.84
			c-1.023,0.908-1.67,2.012-1.607,3.422c0.034,0.76,0.305,1.437,1.075,1.746c0.627,0.252,1.283,0.242,1.916-0.001
			C24.953,18.788,26.096,17.125,26.114,15.469z M11.66,13.732c-0.029-0.917-0.297-1.786-0.815-2.574
			c-0.178-0.27-0.393-0.51-0.639-0.72C9.046,9.449,7.62,9.779,7.034,11.186c-0.423,1.016-0.427,2.054-0.075,3.092
			c0.263,0.777,0.66,1.469,1.34,1.959c1.033,0.744,2.229,0.489,2.87-0.607C11.507,15.053,11.649,14.422,11.66,13.732z"/>
		<path fill-rule="evenodd" clip-rule="evenodd" fill="none" d="M0.053,19.117c0.139,0.255,0.277,0.51,0.417,0.765
			c1.366,2.476,3.4,4.231,5.906,5.476c1.98,0.984,4.082,1.573,6.259,1.911c1.727,0.268,3.466,0.396,5.213,0.374
			c3.212-0.037,6.069-0.994,8.386-3.304c1.248-1.244,2.099-2.728,2.59-4.419c0.071-0.246,0.157-0.488,0.259-0.729
			c0.035,0.559-0.029,1.108-0.112,1.657c-0.416,2.739-1.816,4.93-3.772,6.819c-1.587,1.534-3.381,2.722-5.515,3.353
			c-0.034,0.01-0.068,0.021-0.102,0.033c-0.004,0.002-0.005,0.017-0.01,0.038c0.062,0.004,0.121,0.011,0.181,0.011
			c2.882-0.003,5.763-0.004,8.644-0.011c0.475-0.001,0.946-0.046,1.412-0.15c1.339-0.299,2.211-1.284,2.364-2.649
			c0.023-0.212-0.031-0.44,0.1-0.637c0,1.128-0.006,2.256,0.006,3.383c0.001,0.185-0.037,0.221-0.221,0.22
			c-6.972-0.006-13.944-0.005-20.916-0.005c-3.625,0-7.25-0.002-10.874,0.006c-0.184,0-0.222-0.036-0.22-0.221
			c0.011-1.092,0.005-2.184,0.005-3.275c0.112,0.182,0.068,0.393,0.107,0.589c0.249,1.258,0.854,2.21,2.166,2.567
			c0.485,0.132,0.981,0.199,1.482,0.218c1.315,0.051,2.627-0.061,3.941-0.082c0.34-0.006,0.681-0.001,1.021-0.001
			c-0.107-0.095-0.221-0.138-0.334-0.181c-1.94-0.735-3.621-1.853-5.016-3.394c-1.458-1.608-2.452-3.485-3.199-5.506
			c-0.02-0.053-0.005-0.132-0.116-0.143c0.069,0.835,0.015,1.664,0.006,2.495c-0.001,0.106,0.048,0.231-0.059,0.322
			C0.053,22.804,0.053,20.961,0.053,19.117z"/>
		<path fill-rule="evenodd" clip-rule="evenodd" fill="none" d="M32.273,24.917c-0.105-0.059-0.057-0.16-0.059-0.24
			c-0.029-1.108-0.078-2.217-0.057-3.327c0.001-0.022-0.008-0.046-0.028-0.146c-1.415,3.885-4.174,6.445-7.623,8.363
			c-0.019-0.018-0.038-0.035-0.057-0.053c0.479-0.509,0.966-1.012,1.437-1.529c1.157-1.271,2.14-2.659,2.839-4.238
			c0.397-0.898,0.502-1.859,0.624-2.817c0.437-3.431,0.144-6.785-1.104-10.027c-1.364-3.548-3.762-6.164-7.189-7.819
			c-1.323-0.639-2.731-0.875-4.197-0.805c-1.377,0.067-2.748,0.189-4.11,0.398c-0.07,0.011-0.141,0.013-0.247,0.021
			c0.097-0.134,0.222-0.177,0.331-0.235c0.934-0.492,1.951-0.745,2.958-1.027c1.493-0.418,3.014-0.646,4.562-0.522
			c5.438,0.433,9.316,3.121,11.597,8.09c0.062,0.134,0.119,0.271,0.22,0.399c0-0.146,0.003-0.292-0.001-0.438
			c-0.022-0.94,0.02-1.878,0.046-2.817c0.002-0.064-0.032-0.148,0.06-0.187C32.273,12.279,32.273,18.597,32.273,24.917z"/>
		<path fill-rule="evenodd" clip-rule="evenodd" fill="none" d="M32.273,5.585c-0.085-0.083-0.038-0.187-0.038-0.279
			c0.002-0.733,0.02-1.467-0.061-2.199c-0.191-1.745-1.218-2.762-2.969-2.947c-0.285-0.03-0.57-0.045-0.857-0.044
			c-2.201,0.001-4.402,0-6.604,0c-0.043,0-0.086,0-0.13,0c0.461,0.222,0.952,0.361,1.394,0.638c-0.443-0.063-0.887-0.125-1.33-0.191
			c-1.906-0.283-3.807-0.36-5.703,0.105c-2.352,0.578-4.398,1.74-6.239,3.277C7.52,5.797,5.584,7.912,4.043,10.364
			c-1.18,1.876-1.845,3.93-1.876,6.159c-0.035,2.425,0.737,4.604,2.1,6.588c0.157,0.229,0.319,0.454,0.478,0.681
			c0.049,0.071,0.125,0.134,0.081,0.246c-2.34-1.535-3.827-3.693-4.667-6.387c-0.076,0.239,0.032,0.444-0.104,0.607
			c0-3.902,0-7.804,0-11.707c0.091,0.04,0.056,0.123,0.057,0.187c0.016,0.617,0.027,1.234,0.039,1.851c0.003,0.162,0,0.324,0,0.486
			c1.726-4.065,4.409-7.184,8.537-8.94c-0.788,0.05-1.556-0.014-2.324-0.022C6.264,0.111,6.148,0.16,6.068,0.053
			c8.655,0,17.309,0.001,25.964-0.005c0.201,0,0.248,0.045,0.246,0.247C32.269,2.058,32.273,3.822,32.273,5.585z"/>
		<path fill-rule="evenodd" clip-rule="evenodd" fill="#027DAE" d="M6.068,0.053c0.08,0.106,0.197,0.058,0.295,0.059
			c0.768,0.008,1.536,0.073,2.324,0.022C4.559,1.891,1.876,5.01,0.15,9.075c0-0.162,0.002-0.324,0-0.486
			C0.138,7.972,0.126,7.355,0.111,6.738C0.109,6.674,0.145,6.591,0.053,6.551c0-0.34,0-0.68,0-1.02c0.056-0.537,0.046-1.074,0-1.611
			c0-0.215,0-0.43,0-0.644c0.073-0.017,0.058-0.079,0.063-0.128c0.186-1.732,1.147-2.731,2.866-3C3.151,0.121,3.338,0.17,3.49,0.053
			C4.349,0.053,5.209,0.053,6.068,0.053z"/>
		<path fill-rule="evenodd" clip-rule="evenodd" fill="#027DAE" d="M0.053,24.648c0.107-0.091,0.058-0.216,0.059-0.322
			c0.009-0.831,0.063-1.66-0.006-2.495c0.11,0.011,0.096,0.09,0.116,0.143c0.747,2.021,1.741,3.897,3.199,5.506
			c1.396,1.541,3.076,2.658,5.016,3.394c0.114,0.043,0.227,0.086,0.334,0.181c-0.34,0-0.681-0.005-1.021,0.001
			c-1.314,0.021-2.626,0.133-3.941,0.082c-0.501-0.019-0.998-0.086-1.482-0.218c-1.312-0.357-1.917-1.31-2.166-2.567
			c-0.039-0.196,0.005-0.407-0.107-0.589C0.053,26.724,0.053,25.686,0.053,24.648z"/>
		<path fill-rule="evenodd" clip-rule="evenodd" fill="none" d="M3.49,0.053C3.338,0.17,3.151,0.121,2.982,0.148
			c-1.719,0.268-2.68,1.268-2.866,3c-0.005,0.05,0.01,0.111-0.063,0.128c0-1.021,0.003-2.041-0.003-3.061
			C0.049,0.08,0.08,0.049,0.215,0.05C1.306,0.056,2.398,0.053,3.49,0.053z"/>
		<path fill-rule="evenodd" clip-rule="evenodd" fill="none" d="M0.053,3.92c0.046,0.537,0.056,1.074,0,1.611
			C0.053,4.994,0.053,4.457,0.053,3.92z"/>
		<path fill-rule="evenodd" clip-rule="evenodd" fill="none" d="M13.325,23.249c-0.609-0.008-1.27,0.122-1.937,0.189
			c-0.729,0.073-1.449,0.079-2.103-0.339c-0.867-0.554-1.143-1.094-0.87-2.322c0.051-0.228,0.145-0.443,0.263-0.644
			c0.839-1.423,1.838-2.714,3.187-3.69c1.426-1.032,3.009-1.266,4.695-0.811c1.053,0.284,1.842,0.952,2.426,1.844
			c1.15,1.754,1.857,3.679,2.089,5.768c0.049,0.438-0.011,0.876-0.138,1.3c-0.172,0.572-0.762,1.015-1.445,1.071
			c-0.764,0.063-1.453-0.142-2.059-0.612c-0.211-0.164-0.413-0.342-0.619-0.515C15.781,23.619,14.74,23.242,13.325,23.249z"/>
		<path fill-rule="evenodd" clip-rule="evenodd" fill="none" d="M17.75,11.071c0.123-1.628,0.783-2.965,2.15-3.913
			c0.56-0.388,1.195-0.467,1.85-0.375c0.651,0.092,1.072,0.505,1.337,1.083c0.348,0.759,0.396,1.558,0.229,2.363
			c-0.266,1.268-0.927,2.293-1.976,3.06c-0.313,0.229-0.666,0.385-1.05,0.456c-0.979,0.18-1.813-0.262-2.232-1.178
			C17.867,12.15,17.761,11.618,17.75,11.071z"/>
		<path fill-rule="evenodd" clip-rule="evenodd" fill="none" d="M16.971,8.783c-0.011,0.78-0.142,1.522-0.487,2.216
			c-0.169,0.339-0.387,0.643-0.671,0.896c-0.787,0.701-1.762,0.737-2.591,0.087c-0.744-0.582-1.124-1.372-1.268-2.287
			c-0.185-1.174-0.063-2.306,0.547-3.344c0.99-1.681,2.904-1.667,3.878,0.022C16.81,7.12,16.958,7.942,16.971,8.783z"/>
		<path fill-rule="evenodd" clip-rule="evenodd" fill="none" d="M26.114,15.469c-0.018,1.655-1.161,3.318-2.648,3.892
			c-0.633,0.243-1.289,0.253-1.916,0.001c-0.771-0.31-1.041-0.986-1.075-1.746c-0.063-1.41,0.584-2.514,1.607-3.422
			c0.488-0.434,1.052-0.737,1.71-0.84c1.27-0.199,2.181,0.503,2.304,1.782C26.108,15.269,26.11,15.404,26.114,15.469z"/>
		<path fill-rule="evenodd" clip-rule="evenodd" fill="none" d="M11.66,13.732c-0.011,0.69-0.153,1.321-0.491,1.897
			c-0.641,1.097-1.837,1.352-2.87,0.607c-0.68-0.49-1.077-1.182-1.34-1.959c-0.352-1.039-0.348-2.077,0.075-3.092
			c0.586-1.407,2.012-1.737,3.171-0.748c0.247,0.21,0.461,0.45,0.639,0.72C11.363,11.947,11.631,12.815,11.66,13.732z"/>
	</g>
</g>
</svg>
