<?xml version="1.0" encoding="utf-8"?>
<!-- Generator: Adobe Illustrator 16.0.0, SVG Export Plug-In . SVG Version: 6.00 Build 0)  -->
<!DOCTYPE svg PUBLIC "-//W3C//DTD SVG 1.1//EN" "http://www.w3.org/Graphics/SVG/1.1/DTD/svg11.dtd">
<svg version="1.1" id="Calque_1" xmlns="http://www.w3.org/2000/svg" xmlns:xlink="http://www.w3.org/1999/xlink" x="0px" y="0px"
	 width="28.646px" height="23.279px" viewBox="0 0 28.646 23.279" enable-background="new 0 0 28.646 23.279" xml:space="preserve">
<path fill="#1DA1F3" d="M9.008,23.279c10.812,0,16.724-8.955,16.724-16.727c0-0.254,0-0.506-0.018-0.76
	c1.15-0.83,2.145-1.861,2.934-3.041c-1.074,0.475-2.211,0.785-3.377,0.926c1.227-0.736,2.146-1.891,2.584-3.252
	c-1.152,0.684-2.416,1.166-3.732,1.426c-2.225-2.367-5.949-2.479-8.316-0.256c-1.525,1.438-2.173,3.574-1.7,5.617
	C9.38,6.974,4.977,4.744,1.994,1.07C0.433,3.758,1.23,7.191,3.812,8.916C2.876,8.89,1.962,8.638,1.146,8.181
	c0,0.025,0,0.051,0,0.074c0,2.799,1.973,5.207,4.715,5.762c-0.866,0.236-1.773,0.271-2.654,0.104
	c0.771,2.395,2.978,4.035,5.492,4.082c-2.082,1.635-4.653,2.521-7.301,2.52c-0.467,0-0.935-0.025-1.398-0.084
	c2.688,1.727,5.814,2.643,9.009,2.635"/>
</svg>
